<?xml version="1.0" encoding="utf-8"?><svg viewBox="0 0 502.66 502.66" xmlns="http://www.w3.org/2000/svg" xmlns:xlink="http://www.w3.org/1999/xlink"><style>:root>svg{display:none}:root>svg:target{display:block}</style><svg viewBox="0 0 16 16" id="arrow" xmlns="http://www.w3.org/2000/svg"><mask id="aa" maskUnits="userSpaceOnUse" x="0" y="0" width="16" height="16"><path fill-rule="evenodd" clip-rule="evenodd" d="M16 7H3.83l5.59-5.59L8 0 0 8l8 8 1.41-1.41L3.83 9H16V7z"/></mask><g mask="url(#aa)"><path d="M-5-5h26v26H-5z"/></g></svg><svg viewBox="0 0 20 20" id="comments" xmlns="http://www.w3.org/2000/svg"><mask id="ba" maskUnits="userSpaceOnUse" x="0" y="0" width="20" height="20"><path fill-rule="evenodd" clip-rule="evenodd" d="M19 4h-2v9H4v2c0 .55.45 1 1 1h11l4 4V5c0-.55-.45-1-1-1zm-4 6V1c0-.55-.45-1-1-1H1C.45 0 0 .45 0 1v14l4-4h10c.55 0 1-.45 1-1z"/></mask><g mask="url(#ba)"><path d="M-3-3h26v26H-3z"/></g></svg><svg viewBox="0 0 22 16" id="eye" xmlns="http://www.w3.org/2000/svg"><mask id="ca" maskUnits="userSpaceOnUse" x="0" y="0" width="22" height="16"><path fill-rule="evenodd" clip-rule="evenodd" d="M11 .5C6 .5 1.73 3.61 0 8c1.73 4.39 6 7.5 11 7.5s9.27-3.11 11-7.5C20.27 3.61 16 .5 11 .5zM11 13c-2.76 0-5-2.24-5-5s2.24-5 5-5 5 2.24 5 5-2.24 5-5 5zm0-8C9.34 5 8 6.34 8 8s1.34 3 3 3 3-1.34 3-3-1.34-3-3-3z"/></mask><g mask="url(#ca)"><path d="M-2-5h26v26H-2z"/></g></svg><svg viewBox="0 0 502.664 502.664" id="icon" xmlns="http://www.w3.org/2000/svg"><path d="M153.821 358.226L0 274.337v-46.463l153.821-83.414v54.574L46.636 250.523l107.185 53.431v54.272zm26.273 29.358L282.103 115.08h32.227L212.084 387.584h-31.99zm168.749-29.358v-54.272l107.164-52.999-107.164-52.59v-53.927l153.821 83.522v46.183l-153.821 84.083z"/></svg></svg>